# File created by Blade
# Date/Time:  Fri Jan 16 14:33:51 2015
#---------------------------------------------------------
:version 1.10
:name HOM
:units
  mass 1.0
  length 1.000000
  angle deg
:documentation
     Acclaim Skeleton File
:root
   axis xyz
   order TX TY TZ RX RY RZ
   position 0.000000 0.000000 0.000000
   orientation 0 0 0
:bonedata
   begin
      id 1
      name Spine_dum
      direction 0.000000 1.000000 0.000000
      length 7.067664
      axis 0.0 0.0 0.0 xyz
   end
   begin
      id 2
      name LeftUpLeg_dum
      direction 1.000000 0.000000 0.000000
      length 4.013002
      axis 0.0 0.0 0.0 xyz
   end
   begin
      id 3
      name RightUpLeg_dum
      direction -1.000000 0.000000 0.000000
      length 4.013002
      axis 0.0 0.0 0.0 xyz
   end
   begin
      id 4
      name Spine
      direction 0.000000 1.000000 0.000000
      length 0.000000
      axis 0.0 0.0 0.0 xyz
      dof rx ry rz
   end
   begin
      id 5
      name Spine_dum1
      direction 0.000000 1.000000 0.000000
      length 15.039886
      axis 0.0 0.0 0.0 xyz
   end
   begin
      id 6
      name Spine_dum2
      direction 0.000000 1.000000 0.000000
      length 10.530368
      axis 0.0 0.0 0.0 xyz
   end
   begin
      id 7
      name Spine_dum3
      direction 0.000000 1.000000 0.000000
      length 10.530368
      axis 0.0 0.0 0.0 xyz
   end
   begin
      id 8
      name Head
      direction 0.000000 1.000000 0.000000
      length 4.527550
      axis 0.0 0.0 0.0 xyz
      dof rx ry rz
   end
   begin
      id 9
      name LeftShoulder
      direction 1.000000 0.000000 0.000000
      length 7.028855
      axis 0.0 0.0 -90.0 xyz
      dof rx ry rz
   end
   begin
      id 10
      name LeftArm
      direction 1.000000 0.000000 0.000000
      length 10.797705
      axis 0.0 0.0 -90.0 xyz
      dof rx ry rz
   end
   begin
      id 11
      name LeftForeArm
      direction 1.000000 0.000000 0.000000
      length 7.907442
      axis 0.0 0.0 -90.0 xyz
      dof ry rz rx
   end
   begin
      id 12
      name LeftHand
      direction 0.000000 0.000000 0.000000
      length 0.000000
      axis 0.0 0.0 -90.0 xyz
      dof rx ry rz
   end
   begin
      id 13
      name LeftHand_dum1
      direction 0.000000 0.000000 0.000000
      length 0.000000
      axis 0.0 0.0 -90.0 xyz
   end
   begin
      id 14
      name LeftHand_dum2
      direction 1.000000 0.000000 0.000000
      length 3.937000
      axis 0.0 0.0 -90.0 xyz
   end
   begin
      id 15
      name LeftHandThumb1
      direction 0.000000 0.000000 1.000000
      length 3.937000
      axis 0.0 0.0 -90.0 xyz
      dof rx rz ry
   end
   begin
      id 16
      name RightShoulder
      direction -1.000000 0.000000 0.000000
      length 7.028855
      axis 0.0 0.0 90.0 xyz
      dof rx ry rz
   end
   begin
      id 17
      name RightArm
      direction -1.000000 0.000000 0.000000
      length 10.797705
      axis 0.0 0.0 90.0 xyz
      dof rx ry rz
   end
   begin
      id 18
      name RightForeArm
      direction -1.000000 0.000000 0.000000
      length 7.907442
      axis 0.0 0.0 90.0 xyz
      dof ry rz rx
   end
   begin
      id 19
      name RightHand
      direction 0.000000 0.000000 0.000000
      length 0.000000
      axis 0.0 0.0 90.0 xyz
      dof rx ry rz
   end
   begin
      id 20
      name RightHand_dum1
      direction 0.000000 0.000000 0.000000
      length 0.000000
      axis 0.0 0.0 90.0 xyz
   end
   begin
      id 21
      name RightHand_dum2
      direction -1.000000 0.000000 0.000000
      length 3.937000
      axis 0.0 0.0 90.0 xyz
   end
   begin
      id 22
      name RightHandThumb1
      direction 0.000000 0.000000 1.000000
      length 3.937000
      axis 0.0 0.0 90.0 xyz
      dof rx rz ry
   end
   begin
      id 23
      name LeftUpLeg
      direction 0.000000 -1.000000 0.000000
      length 16.899758
      axis 0.0 0.0 0.0 xyz
      dof rx ry rz
   end
   begin
      id 24
      name LeftLeg
      direction 0.000000 -1.000000 0.000000
      length 17.389183
      axis 0.0 0.0 0.0 xyz
      dof rx ry rz
   end
   begin
      id 25
      name LeftFoot
      direction 0.000000 -0.258819 0.965926
      length 4.924528
      axis 15.0 0.0 0.0 xyz
      dof rx ry rz
   end
   begin
      id 26
      name LeftToeBase
      direction 0.000000 0.000000 1.000000
      length 2.952750
      axis 0.0 0.0 0.0 xyz
      dof rx ry rz
   end
   begin
      id 27
      name RightUpLeg
      direction 0.000000 -1.000000 0.000000
      length 16.899758
      axis 0.0 0.0 0.0 xyz
      dof rx ry rz
   end
   begin
      id 28
      name RightLeg
      direction 0.000000 -1.000000 0.000000
      length 17.389183
      axis 0.0 0.0 0.0 xyz
      dof rx ry rz
   end
   begin
      id 29
      name RightFoot
      direction 0.000000 -0.258819 0.965926
      length 4.924528
      axis 15.0 0.0 0.0 xyz
      dof rx ry rz
   end
   begin
      id 30
      name RightToeBase
      direction 0.000000 0.000000 1.000000
      length 2.952750
      axis 0.0 0.0 0.0 xyz
      dof rx ry rz
   end
:hierarchy
   begin
      root Spine_dum LeftUpLeg_dum RightUpLeg_dum
      Spine_dum Spine
      LeftUpLeg_dum LeftUpLeg
      RightUpLeg_dum RightUpLeg
      Spine Spine_dum1 Spine_dum2 Spine_dum3
      Spine_dum1 Head
      Spine_dum2 LeftShoulder
      Spine_dum3 RightShoulder
      LeftShoulder LeftArm
      LeftArm LeftForeArm
      LeftForeArm LeftHand
      LeftHand LeftHand_dum1 LeftHand_dum2
      LeftHand_dum1 LeftHandThumb1
      RightShoulder RightArm
      RightArm RightForeArm
      RightForeArm RightHand
      RightHand RightHand_dum1 RightHand_dum2
      RightHand_dum1 RightHandThumb1
      LeftUpLeg LeftLeg
      LeftLeg LeftFoot
      LeftFoot LeftToeBase
      RightUpLeg RightLeg
      RightLeg RightFoot
      RightFoot RightToeBase
   end

# File created by Blade
# Date/Time:  Fri Jan 16 14:33:41 2015
# Frame Rate: 120.000 fps
#------------------------------------------------------
:FULLY-SPECIFIED
:DEGREES
251
root 18.902792 35.598703 -25.211018 -170.768839 -1.494101 -178.858261
Spine -20.737454 -0.686964 0.253404
Head 7.886805 -1.490589 1.614784
LeftShoulder -12.088232 -25.351917 17.410696
LeftArm 7.891716 1.719359 -9.915237
LeftForeArm 8.225400 -0.000000 -0.377739
LeftHand -7.930472 -0.000000 -8.381844
LeftHandThumb1 -26.253704 0.000000 33.147579
RightShoulder -12.305526 -9.377102 -6.366017
RightArm 12.380739 36.429280 15.186786
RightForeArm -36.346866 0.000000 6.500656
RightHand -6.477044 0.000000 8.970122
RightHandThumb1 -24.326973 -0.000000 -32.862282
LeftUpLeg 1.010731 8.879451 0.395551
LeftLeg -6.183097 -0.000000 0.000000
LeftFoot -21.629588 26.583091 -15.663988
LeftToeBase 24.168217 -0.000000 -0.000000
RightUpLeg -0.190932 -9.170553 2.767033
RightLeg -4.029785 -0.000000 0.000000
RightFoot -21.825683 -25.834689 16.735876
RightToeBase 22.321596 -0.000000 -0.000000
252
root 18.901682 35.598405 -25.213702 -170.764888 -1.494606 -178.862253
Spine -20.741149 -0.686808 0.246754
Head 7.879202 -1.481527 1.622412
LeftShoulder -12.085440 -25.356493 17.421267
LeftArm 7.891933 1.739448 -9.899870
LeftForeArm 8.215736 0.000000 -0.372138
LeftHand -7.937985 -0.000000 -8.383139
LeftHandThumb1 -26.253704 0.000000 33.147579
RightShoulder -12.351514 -9.475364 -6.311070
RightArm 12.508999 36.477254 15.181488
RightForeArm -36.285565 -0.000000 6.464885
RightHand -6.740022 0.000000 8.934170
RightHandThumb1 -24.326973 -0.000000 -32.862282
LeftUpLeg 1.011427 8.893397 0.389795
LeftLeg -6.184929 -0.000000 0.000000
LeftFoot -21.634011 26.565974 -15.669633
LeftToeBase 24.215345 -0.000000 -0.000000
RightUpLeg -0.187923 -9.186667 2.761933
RightLeg -4.035350 -0.000000 0.000000
RightFoot -21.814475 -25.836570 16.695221
RightToeBase 22.344495 -0.000000 -0.000000
253
root 18.899474 35.598997 -25.215826 -170.759415 -1.500164 -178.859932
Spine -20.744784 -0.698289 0.258641
Head 7.883746 -1.439645 1.612938
LeftShoulder -12.089737 -25.364635 17.420155
LeftArm 7.891454 1.756399 -9.876986
LeftForeArm 8.214615 -0.000000 -0.373029
LeftHand -7.921114 -0.000000 -8.382903
LeftHandThumb1 -26.253704 0.000000 33.147579
RightShoulder -12.326510 -9.459828 -6.327908
RightArm 12.475616 36.506063 15.157846
RightForeArm -36.316140 -0.000000 6.475996
RightHand -6.658944 -0.000000 8.899301
RightHandThumb1 -24.326973 -0.000000 -32.862282
LeftUpLeg 1.010068 8.886458 0.388758
LeftLeg -6.186022 -0.000000 0.000000
LeftFoot -21.629077 26.560203 -15.684974
LeftToeBase 24.173736 -0.000000 -0.000000
RightUpLeg -0.187184 -9.175653 2.761289
RightLeg -4.039802 -0.000000 0.000000
RightFoot -21.826382 -25.836784 16.751700
RightToeBase 22.306032 -0.000000 -0.000000
254
root 18.897678 35.598722 -25.218023 -170.749855 -1.501341 -178.861440
Spine -20.751458 -0.704984 0.255241
Head 7.874602 -1.417699 1.638553
LeftShoulder -12.105294 -25.349852 17.443420
LeftArm 7.906177 1.731784 -9.879897
LeftForeArm 8.215582 -0.000000 -0.367688
LeftHand -7.929731 -0.000000 -8.370308
LeftHandThumb1 -26.253704 0.000000 33.147579
RightShoulder -12.303417 -9.444262 -6.337435
RightArm 12.432798 36.534230 15.128649
RightForeArm -36.329938 -0.000000 6.489727
RightHand -6.449218 -0.000000 8.941781
RightHandThumb1 -24.326973 -0.000000 -32.862282
LeftUpLeg 1.008417 8.879152 0.384307
LeftLeg -6.194415 -0.000000 0.000000
LeftFoot -21.631596 26.567767 -15.681329
LeftToeBase 24.194883 -0.000000 -0.000000
RightUpLeg -0.188679 -9.172772 2.760812
RightLeg -4.051764 -0.000000 0.000000
RightFoot -21.826678 -25.849738 16.767191
RightToeBase 22.261799 -0.000000 -0.000000
255
root 18.897378 35.598685 -25.219527 -170.730154 -1.512910 -178.851274
Spine -20.769751 -0.707562 0.258105
Head 7.862286 -1.409070 1.660965
LeftShoulder -12.107983 -25.366468 17.470507
LeftArm 7.904135 1.738669 -9.883642
LeftForeArm 8.197911 -0.000000 -0.345384
LeftHand -7.944104 0.000000 -8.334899
LeftHandThumb1 -26.253704 0.000000 33.147579
RightShoulder -12.326062 -9.465530 -6.340745
RightArm 12.480743 36.489121 15.144053
RightForeArm -36.206627 -0.000000 6.485364
RightHand -6.632241 -0.000000 8.911193
RightHandThumb1 -24.326973 -0.000000 -32.862282
LeftUpLeg 0.996751 8.862596 0.392111
LeftLeg -6.210841 -0.000000 0.000000
LeftFoot -21.618107 26.592025 -15.658516
LeftToeBase 24.161535 -0.000000 -0.000000
RightUpLeg -0.204631 -9.186611 2.774859
RightLeg -4.053087 -0.000000 0.000000
RightFoot -21.825379 -25.847319 16.770976
RightToeBase 22.322201 -0.000000 -0.000000
256
root 18.894119 35.598649 -25.221994 -170.725972 -1.514278 -178.860845
Spine -20.768437 -0.713538 0.256220
Head 7.847436 -1.385224 1.664296
LeftShoulder -12.123747 -25.341516 17.466423
LeftArm 7.933990 1.710085 -9.857129
LeftForeArm 8.242161 -0.000000 -0.337837
LeftHand -7.993983 -0.000000 -8.416514
LeftHandThumb1 -26.253704 0.000000 33.147579
RightShoulder -12.302067 -9.439194 -6.370619
RightArm 12.443115 36.475785 15.126541
RightForeArm -36.188072 -0.000000 6.491207
RightHand -6.643277 -0.000000 8.917201
RightHandThumb1 -24.326973 -0.000000 -32.862282
LeftUpLeg 0.992337 8.850571 0.378204
LeftLeg -6.198645 -0.000000 0.000000
LeftFoot -21.638734 26.578382 -15.693978
LeftToeBase 24.186581 -0.000000 -0.000000
RightUpLeg -0.205804 -9.196496 2.759428
RightLeg -4.049260 -0.000000 0.000000
RightFoot -21.810225 -25.845507 16.733114
RightToeBase 22.300628 -0.000000 -0.000000
257
root 18.891720 35.598520 -25.224440 -170.717139 -1.519200 -178.859884
Spine -20.774010 -0.705953 0.262943
Head 7.841226 -1.361786 1.652044
LeftShoulder -12.125292 -25.355403 17.466109
LeftArm 7.952667 1.711605 -9.843430
LeftForeArm 8.213489 -0.000000 -0.348442
LeftHand -7.994236 0.000000 -8.429747
LeftHandThumb1 -26.253704 0.000000 33.147579
RightShoulder -12.314505 -9.404141 -6.393961
RightArm 12.432061 36.407985 15.096897
RightForeArm -36.141835 -0.000000 6.476135
RightHand -6.629393 -0.000000 8.910216
RightHandThumb1 -24.326973 -0.000000 -32.862282
LeftUpLeg 0.989656 8.854732 0.375821
LeftLeg -6.204181 -0.000000 0.000000
LeftFoot -21.637415 26.572390 -15.685539
LeftToeBase 24.176307 -0.000000 -0.000000
RightUpLeg -0.205144 -9.183051 2.757165
RightLeg -4.058853 -0.000000 0.000000
RightFoot -21.811062 -25.857124 16.747314
RightToeBase 22.295210 -0.000000 -0.000000
258
root 18.890035 35.598439 -25.225984 -170.706219 -1.516047 -178.862588
Spine -20.787298 -0.704094 0.255073
Head 7.847387 -1.366329 1.670545
LeftShoulder -12.114322 -25.372106 17.489125
LeftArm 7.927897 1.672291 -9.853771
LeftForeArm 8.156936 0.000000 -0.344400
LeftHand -7.937575 -0.000000 -8.351436
LeftHandThumb1 -26.253704 0.000000 33.147579
RightShoulder -12.300437 -9.387967 -6.397503
RightArm 12.406448 36.373139 15.055951
RightForeArm -36.136116 -0.000000 6.460946
RightHand -6.600289 -0.000000 8.914552
RightHandThumb1 -24.326973 -0.000000 -32.862282
LeftUpLeg 0.982387 8.849974 0.368769
LeftLeg -6.205648 -0.000000 0.000000
LeftFoot -21.634798 26.577776 -15.689953
LeftToeBase 24.157977 -0.000000 -0.000000
RightUpLeg -0.211166 -9.187924 2.752828
RightLeg -4.063297 -0.000000 0.000000
RightFoot -21.814118 -25.844085 16.748783
RightToeBase 22.276812 -0.000000 -0.000000
259
root 18.888140 35.598133 -25.228192 -170.694638 -1.516405 -178.864696
Spine -20.799032 -0.697298 0.249964
Head 7.865187 -1.369263 1.652280
LeftShoulder -12.114213 -25.382399 17.502594
LeftArm 7.948348 1.678256 -9.852639
LeftForeArm 8.076384 -0.000000 -0.345639
LeftHand -7.988560 -0.000000 -8.328138
LeftHandThumb1 -26.253704 0.000000 33.147579
RightShoulder -12.296526 -9.384602 -6.411072
RightArm 12.362871 36.463779 15.042792
RightForeArm -36.314451 0.000000 6.494382
RightHand -6.225324 -0.000000 9.034887
RightHandThumb1 -24.326973 -0.000000 -32.862282
LeftUpLeg 0.976294 8.850072 0.362369
LeftLeg -6.209082 -0.000000 0.000000
LeftFoot -21.642582 26.576677 -15.694621
LeftToeBase 24.176647 -0.000000 -0.000000
RightUpLeg -0.218960 -9.199534 2.750577
RightLeg -4.066339 -0.000000 0.000000
RightFoot -21.803718 -25.846361 16.725217
RightToeBase 22.307047 -0.000000 -0.000000
260
root 18.886572 35.597981 -25.229902 -170.682065 -1.510004 -178.859815
Spine -20.814197 -0.686053 0.261571
Head 7.880171 -1.366885 1.627111
LeftShoulder -12.100332 -25.391465 17.489777
LeftArm 7.941991 1.655949 -9.818229
LeftForeArm 8.173948 -0.000000 -0.353085
LeftHand -7.944663 -0.000000 -8.316840
LeftHandThumb1 -26.253704 0.000000 33.147579
RightShoulder -12.267512 -9.356710 -6.441687
RightArm 12.312597 36.438446 15.006928
RightForeArm -36.332502 0.000000 6.478584
RightHand -6.386960 -0.000000 8.970959
RightHandThumb1 -24.326973 -0.000000 -32.862282
LeftUpLeg 0.969481 8.856661 0.363226
LeftLeg -6.212144 -0.000000 0.000000
LeftFoot -21.649648 26.563838 -15.701035
LeftToeBase 24.220785 -0.000000 -0.000000
RightUpLeg -0.226289 -9.171285 2.753017
RightLeg -4.071457 -0.000000 0.000000
RightFoot -21.810550 -25.850154 16.768726
RightToeBase 22.216259 -0.000000 -0.000000
261
root 18.884503 35.597781 -25.232426 -170.673825 -1.513286 -178.858294
Spine -20.817492 -0.682196 0.262561
Head 7.866722 -1.380168 1.623103
LeftShoulder -12.104723 -25.388418 17.499032
LeftArm 7.959525 1.637700 -9.806937
LeftForeArm 8.189450 -0.000000 -0.361191
LeftHand -7.929712 -0.000000 -8.318980
LeftHandThumb1 -26.253704 0.000000 33.147579
RightShoulder -12.286134 -9.355901 -6.460028
RightArm 12.321061 36.448789 15.021108
RightForeArm -36.390499 -0.000000 6.501032
RightHand -6.239537 -0.000000 8.994306
RightHandThumb1 -24.326973 -0.000000 -32.862282
LeftUpLeg 0.970099 8.853824 0.360345
LeftLeg -6.222645 -0.000000 0.000000
LeftFoot -21.642046 26.574244 -15.686307
LeftToeBase 24.183993 -0.000000 -0.000000
RightUpLeg -0.225684 -9.165834 2.752338
RightLeg -4.080756 -0.000000 0.000000
RightFoot -21.835692 -25.840960 16.807744
RightToeBase 22.305458 -0.000000 -0.000000
